<?xml version="1.0" encoding="UTF-8" standalone="no"?>
<!-- Created with Inkscape (http://www.inkscape.org/) -->

<svg
   width="8.4666662mm"
   height="8.4666662mm"
   viewBox="0 0 8.4666662 8.4666662"
   version="1.1"
   id="svg5"
   xmlns="http://www.w3.org/2000/svg"
   xmlns:svg="http://www.w3.org/2000/svg">
  <defs
     id="defs2" />
  <g
     id="layer1"
     transform="translate(-62.31477,-89.542973)">
    <circle
       style="fill:#ffffff;stroke-width:0.0282226"
       id="path234"
       cx="66.548103"
       cy="93.776306"
       r="4.2333331" />
    <circle
       style="fill:#0ea5e9;stroke-width:0.0238536;fill-opacity:1"
       id="circle365"
       cx="66.548103"
       cy="93.776306"
       r="3.577985" />
    <g
       aria-label="&lt;"
       id="text588"
       style="font-weight:500;font-size:5.11381px;font-family:Oswald;-inkscape-font-specification:'Oswald Medium';fill:#ffffff;stroke:none;stroke-width:0.1;stroke-linejoin:round">
      <g
         id="path1369"
         style="fill:#ffffff;stroke:none">
        <path
           style="color:#000000;-inkscape-font-specification:'Oswald Medium';stroke:none;stroke-linejoin:miter;-inkscape-stroke:none;fill:#ffffff"
           d="m 64.719008,94.868103 -1.529029,-0.792641 v -0.598315 l 1.529029,-0.792641 v 0.639226 l -1.022762,0.450016 1.022762,0.455129 z"
           id="path1396" />
        <path
           style="color:#000000;-inkscape-font-specification:'Oswald Medium';fill:#ffffff;stroke:none;stroke-linejoin:miter;-inkscape-stroke:none"
           d="m 64.695312,92.640625 -1.529296,0.792969 a 0.050005,0.050005 0 0 0 -0.02539,0.04297 v 0.59961 a 0.050005,0.050005 0 0 0 0.02539,0.04297 l 1.529296,0.792968 a 0.050005,0.050005 0 0 0 0.07422,-0.04492 v -0.638671 a 0.050005,0.050005 0 0 0 -0.0293,-0.04492 l -0.919922,-0.408203 0.917969,-0.40625 a 0.050005,0.050005 0 0 0 0.03125,-0.04492 v -0.640625 a 0.050005,0.050005 0 0 0 -0.07422,-0.04297 z m -0.02539,0.125 v 0.525391 l -0.994141,0.4375 a 0.050005,0.050005 0 0 0 0,0.0918 l 0.994141,0.441407 v 0.52539 l -1.429688,-0.742187 v -0.53711 z"
           id="path1393" />
      </g>
    </g>
    <g
       aria-label="A"
       id="text596"
       style="font-weight:500;font-size:5.11381px;font-family:Oswald;-inkscape-font-specification:'Oswald Medium';fill:#ffffff;stroke:none;stroke-width:0.1;stroke-linejoin:round">
      <g
         id="path1404"
         style="fill:#ffffff;stroke:none">
        <path
           style="color:#000000;-inkscape-font-specification:'Oswald Medium';stroke:none;stroke-linejoin:miter;-inkscape-stroke:none;fill:#ffffff"
           d="m 65.912342,95.847397 0.828438,-4.142186 h 0.807982 l 0.828437,4.142186 h -0.700592 l -0.163642,-0.956283 h -0.721047 l -0.168756,0.956283 z m 0.956283,-1.436981 h 0.562519 l -0.28126,-1.738695 z"
           id="path1409" />
        <path
           style="color:#000000;-inkscape-font-specification:'Oswald Medium';fill:#ffffff;stroke:none;stroke-linejoin:miter;-inkscape-stroke:none"
           d="m 66.740234,91.654297 a 0.050005,0.050005 0 0 0 -0.04883,0.04102 l -0.828125,4.142579 a 0.050005,0.050005 0 0 0 0.04883,0.05859 h 0.710938 a 0.050005,0.050005 0 0 0 0.04883,-0.04102 l 0.162109,-0.914063 h 0.636719 l 0.15625,0.914063 a 0.050005,0.050005 0 0 0 0.04883,0.04102 h 0.701172 a 0.050005,0.050005 0 0 0 0.04883,-0.05859 l -0.828125,-4.142579 a 0.050005,0.050005 0 0 0 -0.04883,-0.04102 z m 0.04102,0.101562 h 0.726562 l 0.808594,4.041016 H 67.71875 L 67.5625,94.882812 a 0.050005,0.050005 0 0 0 -0.04883,-0.04102 h -0.722656 a 0.050005,0.050005 0 0 0 -0.04883,0.04102 l -0.160156,0.914063 h -0.609375 z m 0.369141,0.865235 a 0.050005,0.050005 0 0 0 -0.05078,0.04297 l -0.28125,1.738282 a 0.050005,0.050005 0 0 0 0.05078,0.05859 h 0.5625 a 0.050005,0.050005 0 0 0 0.04883,-0.05859 l -0.28125,-1.738282 a 0.050005,0.050005 0 0 0 -0.04883,-0.04297 z m -0.002,0.367187 0.222657,1.373047 h -0.44336 z"
           id="path1411" />
      </g>
    </g>
    <g
       aria-label="&gt;"
       id="text600"
       style="font-weight:500;font-size:5.11381px;font-family:Oswald;-inkscape-font-specification:'Oswald Medium';fill:#ffffff;stroke:none;stroke-width:0.1;stroke-linejoin:round">
      <g
         id="path1413"
         style="fill:#ffffff;stroke:none">
        <path
           style="color:#000000;-inkscape-font-specification:'Oswald Medium';stroke:none;stroke-linejoin:miter;-inkscape-stroke:none;fill:#ffffff"
           d="m 68.377201,94.868103 v -0.639226 l 1.022762,-0.455129 -1.022762,-0.450016 v -0.639226 l 1.52903,0.792641 v 0.598315 z"
           id="path1418" />
        <path
           style="color:#000000;-inkscape-font-specification:'Oswald Medium';fill:#ffffff;stroke:none;stroke-linejoin:miter;-inkscape-stroke:none"
           d="m 68.400391,92.640625 a 0.050005,0.050005 0 0 0 -0.07227,0.04297 v 0.640625 a 0.050005,0.050005 0 0 0 0.0293,0.04492 l 0.917969,0.40625 -0.917969,0.408203 a 0.050005,0.050005 0 0 0 -0.0293,0.04492 v 0.638671 a 0.050005,0.050005 0 0 0 0.07227,0.04492 l 1.529296,-0.792968 a 0.050005,0.050005 0 0 0 0.02734,-0.04297 v -0.59961 a 0.050005,0.050005 0 0 0 -0.02734,-0.04297 z m 0.02734,0.126953 1.427735,0.740234 v 0.53711 l -1.427735,0.740234 v -0.523437 l 0.992188,-0.441407 a 0.050005,0.050005 0 0 0 0,-0.0918 l -0.992188,-0.4375 z"
           id="path1420" />
      </g>
    </g>
    <g
       id="rect654"
       style="fill:#ffffff;stroke:none">
      <path
         style="color:#000000;fill:#ffffff;stroke-width:0.1;stroke-linejoin:round;-inkscape-stroke:none;stroke:none"
         d="m 65.545538,91.705211 h 0.716303 l -0.826534,4.142186 h -0.716304 z"
         id="path1400" />
      <path
         style="color:#000000;fill:#ffffff;stroke-linejoin:round;-inkscape-stroke:none;stroke:none"
         d="m 65.544922,91.654297 a 0.050005,0.050005 0 0 0 -0.04883,0.04102 l -0.826172,4.142579 a 0.050005,0.050005 0 0 0 0.04883,0.05859 h 0.716797 a 0.050005,0.050005 0 0 0 0.04883,-0.03906 l 0.826172,-4.142578 a 0.050005,0.050005 0 0 0 -0.04883,-0.06055 z m 0.04102,0.101562 h 0.615235 l -0.806641,4.041016 h -0.615234 z"
         id="path1402" />
    </g>
  </g>
</svg>
